<svg xmlns="http://www.w3.org/2000/svg" viewBox="0 0 200 200" width="200" height="200">
  <defs>
    <pattern id="circuit" x="0" y="0" width="200" height="200" patternUnits="userSpaceOnUse">

      <!-- ── Horizontal traces ── -->
      <line x1="0"   y1="20"  x2="50"  y2="20"  stroke="#0D2B0D" stroke-width="1"    opacity="0.8"/>
      <line x1="90"  y1="20"  x2="160" y2="20"  stroke="#0D2B0D" stroke-width="1"    opacity="0.8"/>
      <line x1="0"   y1="40"  x2="80"  y2="40"  stroke="#0D2B0D" stroke-width="1"    opacity="0.8"/>
      <line x1="120" y1="40"  x2="200" y2="40"  stroke="#0D2B0D" stroke-width="1"    opacity="0.8"/>
      <line x1="30"  y1="60"  x2="100" y2="60"  stroke="#0D2B0D" stroke-width="0.75" opacity="0.8"/>
      <line x1="150" y1="60"  x2="200" y2="60"  stroke="#0D2B0D" stroke-width="0.75" opacity="0.8"/>
      <line x1="0"   y1="80"  x2="40"  y2="80"  stroke="#0D2B0D" stroke-width="1"    opacity="0.8"/>
      <line x1="80"  y1="80"  x2="130" y2="80"  stroke="#0D2B0D" stroke-width="0.75" opacity="0.8"/>
      <line x1="0"   y1="100" x2="60"  y2="100" stroke="#0D2B0D" stroke-width="1"    opacity="0.8"/>
      <line x1="140" y1="100" x2="200" y2="100" stroke="#0D2B0D" stroke-width="1"    opacity="0.8"/>
      <line x1="60"  y1="120" x2="120" y2="120" stroke="#0D2B0D" stroke-width="0.75" opacity="0.8"/>
      <line x1="170" y1="120" x2="200" y2="120" stroke="#0D2B0D" stroke-width="0.75" opacity="0.8"/>
      <line x1="0"   y1="140" x2="70"  y2="140" stroke="#0D2B0D" stroke-width="1"    opacity="0.8"/>
      <line x1="110" y1="140" x2="180" y2="140" stroke="#0D2B0D" stroke-width="0.75" opacity="0.8"/>
      <line x1="0"   y1="160" x2="40"  y2="160" stroke="#0D2B0D" stroke-width="1"    opacity="0.8"/>
      <line x1="100" y1="160" x2="200" y2="160" stroke="#0D2B0D" stroke-width="1"    opacity="0.8"/>
      <line x1="20"  y1="180" x2="90"  y2="180" stroke="#0D2B0D" stroke-width="0.75" opacity="0.8"/>
      <line x1="140" y1="180" x2="200" y2="180" stroke="#0D2B0D" stroke-width="0.75" opacity="0.8"/>

      <!-- ── Vertical traces ── -->
      <line x1="20"  y1="0"   x2="20"  y2="40"  stroke="#0D2B0D" stroke-width="0.75" opacity="0.8"/>
      <line x1="20"  y1="80"  x2="20"  y2="180" stroke="#0D2B0D" stroke-width="0.75" opacity="0.8"/>
      <line x1="50"  y1="0"   x2="50"  y2="20"  stroke="#0D2B0D" stroke-width="1"    opacity="0.8"/>
      <line x1="50"  y1="60"  x2="50"  y2="100" stroke="#0D2B0D" stroke-width="0.75" opacity="0.8"/>
      <line x1="80"  y1="0"   x2="80"  y2="40"  stroke="#0D2B0D" stroke-width="1"    opacity="0.8"/>
      <line x1="80"  y1="80"  x2="80"  y2="160" stroke="#0D2B0D" stroke-width="1"    opacity="0.8"/>
      <line x1="100" y1="60"  x2="100" y2="100" stroke="#0D2B0D" stroke-width="0.75" opacity="0.8"/>
      <line x1="100" y1="100" x2="100" y2="160" stroke="#0D2B0D" stroke-width="1"    opacity="0.8"/>
      <line x1="120" y1="40"  x2="120" y2="120" stroke="#0D2B0D" stroke-width="0.75" opacity="0.8"/>
      <line x1="140" y1="0"   x2="140" y2="40"  stroke="#0D2B0D" stroke-width="1"    opacity="0.8"/>
      <line x1="140" y1="40"  x2="140" y2="100" stroke="#0D2B0D" stroke-width="1"    opacity="0.8"/>
      <line x1="160" y1="20"  x2="160" y2="60"  stroke="#0D2B0D" stroke-width="0.75" opacity="0.8"/>
      <line x1="160" y1="120" x2="160" y2="200" stroke="#0D2B0D" stroke-width="0.75" opacity="0.8"/>
      <line x1="40"  y1="80"  x2="40"  y2="160" stroke="#0D2B0D" stroke-width="0.75" opacity="0.8"/>
      <line x1="40"  y1="160" x2="40"  y2="200" stroke="#0D2B0D" stroke-width="1"    opacity="0.8"/>
      <line x1="70"  y1="140" x2="70"  y2="200" stroke="#0D2B0D" stroke-width="0.75" opacity="0.8"/>
      <line x1="110" y1="140" x2="110" y2="200" stroke="#0D2B0D" stroke-width="0.75" opacity="0.8"/>
      <line x1="180" y1="0"   x2="180" y2="20"  stroke="#0D2B0D" stroke-width="0.75" opacity="0.8"/>
      <line x1="180" y1="60"  x2="180" y2="140" stroke="#0D2B0D" stroke-width="0.75" opacity="0.8"/>

      <!-- ── Junction pads (filled circles) ── -->
      <circle cx="80"  cy="40"  r="3" fill="#0D2B0D" opacity="0.8"/>
      <circle cx="120" cy="40"  r="3" fill="#0D2B0D" opacity="0.8"/>
      <circle cx="140" cy="40"  r="3" fill="#0D2B0D" opacity="0.8"/>
      <circle cx="50"  cy="60"  r="2.5" fill="#0D2B0D" opacity="0.8"/>
      <circle cx="100" cy="60"  r="2.5" fill="#0D2B0D" opacity="0.8"/>
      <circle cx="40"  cy="80"  r="2.5" fill="#0D2B0D" opacity="0.8"/>
      <circle cx="60"  cy="100" r="3"   fill="#0D2B0D" opacity="0.8"/>
      <circle cx="100" cy="100" r="3"   fill="#0D2B0D" opacity="0.8"/>
      <circle cx="140" cy="100" r="3"   fill="#0D2B0D" opacity="0.8"/>
      <circle cx="60"  cy="120" r="2.5" fill="#0D2B0D" opacity="0.8"/>
      <circle cx="120" cy="120" r="2.5" fill="#0D2B0D" opacity="0.8"/>
      <circle cx="70"  cy="140" r="2.5" fill="#0D2B0D" opacity="0.8"/>
      <circle cx="110" cy="140" r="2.5" fill="#0D2B0D" opacity="0.8"/>
      <circle cx="40"  cy="160" r="3"   fill="#0D2B0D" opacity="0.8"/>
      <circle cx="100" cy="160" r="3"   fill="#0D2B0D" opacity="0.8"/>
      <circle cx="160" cy="60"  r="2.5" fill="#0D2B0D" opacity="0.8"/>
      <circle cx="160" cy="120" r="2.5" fill="#0D2B0D" opacity="0.8"/>
      <circle cx="180" cy="140" r="2.5" fill="#0D2B0D" opacity="0.8"/>
      <circle cx="20"  cy="40"  r="2.5" fill="#0D2B0D" opacity="0.8"/>
      <circle cx="20"  cy="80"  r="2.5" fill="#0D2B0D" opacity="0.8"/>
      <circle cx="20"  cy="180" r="2.5" fill="#0D2B0D" opacity="0.8"/>

      <!-- ── Vias (hollow ring circles) ── -->
      <circle cx="80"  cy="160" r="4"   fill="none" stroke="#0D2B0D" stroke-width="1"    opacity="0.8"/>
      <circle cx="100" cy="100" r="4"   fill="none" stroke="#0D2B0D" stroke-width="1"    opacity="0.8"/>
      <circle cx="50"  cy="20"  r="3.5" fill="none" stroke="#0D2B0D" stroke-width="0.75" opacity="0.8"/>
      <circle cx="140" cy="0"   r="3.5" fill="none" stroke="#0D2B0D" stroke-width="0.75" opacity="0.8"/>
      <circle cx="140" cy="200" r="3.5" fill="none" stroke="#0D2B0D" stroke-width="0.75" opacity="0.8"/>
      <circle cx="180" cy="60"  r="3.5" fill="none" stroke="#0D2B0D" stroke-width="0.75" opacity="0.8"/>
      <circle cx="70"  cy="200" r="3.5" fill="none" stroke="#0D2B0D" stroke-width="0.75" opacity="0.8"/>
      <circle cx="110" cy="200" r="3.5" fill="none" stroke="#0D2B0D" stroke-width="0.75" opacity="0.8"/>
      <circle cx="160" cy="200" r="3.5" fill="none" stroke="#0D2B0D" stroke-width="0.75" opacity="0.8"/>

      <!-- ── IC pad rectangles (DIP-style component outlines) ── -->
      <rect x="55"  y="35"  width="10" height="10" rx="1" fill="none" stroke="#0D2B0D" stroke-width="0.75" opacity="0.8"/>
      <rect x="115" y="35"  width="10" height="10" rx="1" fill="none" stroke="#0D2B0D" stroke-width="0.75" opacity="0.8"/>
      <rect x="95"  y="115" width="10" height="10" rx="1" fill="none" stroke="#0D2B0D" stroke-width="0.75" opacity="0.8"/>
      <rect x="155" y="115" width="10" height="10" rx="1" fill="none" stroke="#0D2B0D" stroke-width="0.75" opacity="0.8"/>
      <rect x="35"  y="135" width="10" height="10" rx="1" fill="none" stroke="#0D2B0D" stroke-width="0.75" opacity="0.8"/>

      <!-- ── Resistor-like components (rounded rect bodies) ── -->
      <rect x="25"  y="97"  width="20" height="6" rx="2" fill="none" stroke="#0D2B0D" stroke-width="0.75" opacity="0.8"/>
      <rect x="145" y="97"  width="20" height="6" rx="2" fill="none" stroke="#0D2B0D" stroke-width="0.75" opacity="0.8"/>
      <rect x="85"  y="157" width="20" height="6" rx="2" fill="none" stroke="#0D2B0D" stroke-width="0.75" opacity="0.8"/>
      <rect x="5"   y="37"  width="20" height="6" rx="2" fill="none" stroke="#0D2B0D" stroke-width="0.75" opacity="0.8"/>

      <!-- ── Capacitor-like components (two parallel lines) ── -->
      <line x1="128" y1="77" x2="128" y2="83" stroke="#0D2B0D" stroke-width="1.5" opacity="0.8"/>
      <line x1="132" y1="77" x2="132" y2="83" stroke="#0D2B0D" stroke-width="1.5" opacity="0.8"/>
      <line x1="67"  y1="117" x2="67"  y2="123" stroke="#0D2B0D" stroke-width="1.5" opacity="0.8"/>
      <line x1="71"  y1="117" x2="71"  y2="123" stroke="#0D2B0D" stroke-width="1.5" opacity="0.8"/>
      <line x1="167" y1="57" x2="167"  y2="63"  stroke="#0D2B0D" stroke-width="1.5" opacity="0.8"/>
      <line x1="171" y1="57" x2="171"  y2="63"  stroke="#0D2B0D" stroke-width="1.5" opacity="0.8"/>

      <!-- ── IC chip outlines ── -->
      <!-- Small 4-pin IC top-left area -->
      <rect x="2"   y="50"  width="22" height="14" rx="1" fill="none" stroke="#0D2B0D" stroke-width="0.75" opacity="0.8"/>
      <line x1="5"  y1="50"  x2="5"  y2="47"  stroke="#0D2B0D" stroke-width="0.75" opacity="0.8"/>
      <line x1="10" y1="50"  x2="10" y2="47"  stroke="#0D2B0D" stroke-width="0.75" opacity="0.8"/>
      <line x1="15" y1="50"  x2="15" y2="47"  stroke="#0D2B0D" stroke-width="0.75" opacity="0.8"/>
      <line x1="20" y1="50"  x2="20" y2="47"  stroke="#0D2B0D" stroke-width="0.75" opacity="0.8"/>
      <line x1="5"  y1="64"  x2="5"  y2="67"  stroke="#0D2B0D" stroke-width="0.75" opacity="0.8"/>
      <line x1="10" y1="64"  x2="10" y2="67"  stroke="#0D2B0D" stroke-width="0.75" opacity="0.8"/>
      <line x1="15" y1="64"  x2="15" y2="67"  stroke="#0D2B0D" stroke-width="0.75" opacity="0.8"/>
      <line x1="20" y1="64"  x2="20" y2="67"  stroke="#0D2B0D" stroke-width="0.75" opacity="0.8"/>
      <!-- Pin 1 indicator notch -->
      <path d="M 2 57 A 2 2 0 0 1 2 57" stroke="#0D2B0D" stroke-width="0.5" fill="none" opacity="0.8"/>

      <!-- Medium IC chip mid-right area -->
      <rect x="148" y="22"  width="28" height="18" rx="1" fill="none" stroke="#0D2B0D" stroke-width="0.75" opacity="0.8"/>
      <line x1="152" y1="22"  x2="152" y2="18"  stroke="#0D2B0D" stroke-width="0.75" opacity="0.8"/>
      <line x1="158" y1="22"  x2="158" y2="18"  stroke="#0D2B0D" stroke-width="0.75" opacity="0.8"/>
      <line x1="164" y1="22"  x2="164" y2="18"  stroke="#0D2B0D" stroke-width="0.75" opacity="0.8"/>
      <line x1="170" y1="22"  x2="170" y2="18"  stroke="#0D2B0D" stroke-width="0.75" opacity="0.8"/>
      <line x1="152" y1="40"  x2="152" y2="44"  stroke="#0D2B0D" stroke-width="0.75" opacity="0.8"/>
      <line x1="158" y1="40"  x2="158" y2="44"  stroke="#0D2B0D" stroke-width="0.75" opacity="0.8"/>
      <line x1="164" y1="40"  x2="164" y2="44"  stroke="#0D2B0D" stroke-width="0.75" opacity="0.8"/>
      <line x1="170" y1="40"  x2="170" y2="44"  stroke="#0D2B0D" stroke-width="0.75" opacity="0.8"/>

      <!-- ── Diagonal short trace segments ── -->
      <line x1="130" y1="80"  x2="140" y2="100" stroke="#0D2B0D" stroke-width="0.75" opacity="0.8"/>
      <line x1="60"  y1="100" x2="80"  y2="80"  stroke="#0D2B0D" stroke-width="0.75" opacity="0.8"/>
      <line x1="120" y1="120" x2="140" y2="100" stroke="#0D2B0D" stroke-width="0.5"  opacity="0.8"/>

      <!-- ── Fine detail traces (stroke-width 0.5) ── -->
      <line x1="50"  y1="20"  x2="90"  y2="20"  stroke="#0D2B0D" stroke-width="0.5"  opacity="0.8"/>
      <line x1="0"   y1="0"   x2="0"   y2="20"  stroke="#0D2B0D" stroke-width="0.5"  opacity="0.8"/>
      <line x1="200" y1="0"   x2="200" y2="20"  stroke="#0D2B0D" stroke-width="0.5"  opacity="0.8"/>
      <line x1="0"   y1="180" x2="20"  y2="180" stroke="#0D2B0D" stroke-width="0.5"  opacity="0.8"/>
      <line x1="90"  y1="180" x2="140" y2="180" stroke="#0D2B0D" stroke-width="0.5"  opacity="0.8"/>

    </pattern>
  </defs>
  <rect width="200" height="200" fill="url(#circuit)"/>
</svg>
